<mxfile host="Electron" agent="Mozilla/5.0 (Macintosh; Intel Mac OS X 10_15_7) AppleWebKit/537.36 (KHTML, like Gecko) draw.io/26.2.2 Chrome/134.0.6998.178 Electron/35.1.2 Safari/537.36" version="26.2.2">
  <diagram name="Strona-1" id="mMoBiokOtSKrgwJCoztl">
    <mxGraphModel dx="1016" dy="1306" grid="1" gridSize="10" guides="1" tooltips="1" connect="1" arrows="1" fold="1" page="1" pageScale="1" pageWidth="827" pageHeight="1169" math="0" shadow="0">
      <root>
        <mxCell id="0" />
        <mxCell id="1" parent="0" />
        <mxCell id="bme4zidYuyOtilQr2RIw-11" value="&lt;font style=&quot;font-size: 20px;&quot;&gt;System&lt;/font&gt;" style="shape=umlFrame;whiteSpace=wrap;html=1;pointerEvents=0;width=110;height=80;fillColor=#fa6800;fontColor=#000000;strokeColor=#C73500;" parent="1" vertex="1">
          <mxGeometry x="130" y="140" width="560" height="810" as="geometry" />
        </mxCell>
        <mxCell id="bme4zidYuyOtilQr2RIw-13" value="&lt;font style=&quot;font-size: 20px;&quot;&gt;Zarządzanie użytkownikami&lt;/font&gt;" style="shape=folder;fontStyle=1;spacingTop=10;tabWidth=40;tabHeight=14;tabPosition=left;html=1;whiteSpace=wrap;fillColor=#fa6800;fontColor=#000000;strokeColor=#C73500;" parent="1" vertex="1">
          <mxGeometry x="190" y="300" width="190" height="150" as="geometry" />
        </mxCell>
        <mxCell id="bme4zidYuyOtilQr2RIw-14" value="&lt;font style=&quot;font-size: 20px;&quot;&gt;Operacje magazynowe&lt;/font&gt;" style="shape=folder;fontStyle=1;spacingTop=10;tabWidth=40;tabHeight=14;tabPosition=left;html=1;whiteSpace=wrap;fillColor=#fa6800;fontColor=#000000;strokeColor=#C73500;" parent="1" vertex="1">
          <mxGeometry x="457.5" y="300" width="190" height="150" as="geometry" />
        </mxCell>
        <mxCell id="bme4zidYuyOtilQr2RIw-15" value="&lt;font style=&quot;font-size: 20px;&quot;&gt;Logistyka i raporty&lt;/font&gt;" style="shape=folder;fontStyle=1;spacingTop=10;tabWidth=40;tabHeight=14;tabPosition=left;html=1;whiteSpace=wrap;fillColor=#fa6800;fontColor=#000000;strokeColor=#C73500;" parent="1" vertex="1">
          <mxGeometry x="460" y="610" width="185" height="150" as="geometry" />
        </mxCell>
        <mxCell id="bme4zidYuyOtilQr2RIw-16" value="&lt;font style=&quot;font-size: 20px;&quot;&gt;Obsługa klienta&lt;/font&gt;" style="shape=folder;fontStyle=1;spacingTop=10;tabWidth=40;tabHeight=14;tabPosition=left;html=1;whiteSpace=wrap;fillColor=#fa6800;fontColor=#000000;strokeColor=#C73500;" parent="1" vertex="1">
          <mxGeometry x="190" y="610" width="190" height="150" as="geometry" />
        </mxCell>
        <mxCell id="76dMyMUER0JKOPAXsqWI-2" value="&lt;font style=&quot;font-size: 20px;&quot;&gt;&lt;b&gt;Diagram kontekstowy systemu&lt;/b&gt;&lt;/font&gt;" style="text;html=1;align=center;verticalAlign=middle;resizable=0;points=[];autosize=1;strokeColor=none;fillColor=none;" parent="1" vertex="1">
          <mxGeometry x="250" y="23" width="320" height="40" as="geometry" />
        </mxCell>
      </root>
    </mxGraphModel>
  </diagram>
</mxfile>
